<svg id="Layer_2" data-name="Layer 2" xmlns="http://www.w3.org/2000/svg" viewBox="0 0 33 11"><defs><style>.cls-1{fill:none;stroke:#666;stroke-miterlimit:10;stroke-width:0.25px;}</style></defs><title>3 StoneArtboard 1</title><circle class="cls-1" cx="16.53" cy="5.47" r="5.35"/><rect class="cls-1" x="13.5" y="2.44" width="6.06" height="6.06" transform="translate(0.98 13.29) rotate(-45)"/><rect class="cls-1" x="7" y="4.24" width="2.46" height="2.46" transform="translate(-1.46 7.42) rotate(-45)"/><rect class="cls-1" x="23.57" y="4.24" width="2.46" height="2.46" transform="translate(3.4 19.14) rotate(-45)"/><circle class="cls-1" cx="8.23" cy="5.47" r="2.95"/><circle class="cls-1" cx="24.8" cy="5.47" r="2.95"/><path class="cls-1" d="M5.28,4.71H1.12a1,1,0,0,0-.94.94h0a1,1,0,0,0,.94.94H5.5"/><path class="cls-1" d="M27.53,6.59h4.28a1,1,0,0,0,.95-.94h0a1,1,0,0,0-.95-.94H27.65"/></svg>