<svg id="Layer_1" data-name="Layer 1" xmlns="http://www.w3.org/2000/svg" viewBox="0 0 33 11"><defs><style>.cls-1{fill:none;stroke:#666;stroke-miterlimit:10;stroke-width:0.25px;}</style></defs><title>Artboard 3</title><circle class="cls-1" cx="16.59" cy="5.5" r="5.22"/><path class="cls-1" d="M11.83,3.42H1.7a1.8,1.8,0,0,0-1.52,2h0a1.79,1.79,0,0,0,1.52,2H11.83"/><path class="cls-1" d="M21.47,7.36h10a1.8,1.8,0,0,0,1.52-2h0a1.8,1.8,0,0,0-1.52-2H21.34"/><rect class="cls-1" x="14.28" y="3.19" width="4.63" height="4.63" transform="translate(0.97 13.35) rotate(-45)"/><line class="cls-1" x1="0.58" y1="6.73" x2="11.5" y2="6.73"/><line class="cls-1" x1="0.58" y1="4.04" x2="11.5" y2="4.04"/><line class="cls-1" x1="21.71" y1="6.73" x2="32.63" y2="6.73"/><line class="cls-1" x1="21.71" y1="4.04" x2="32.63" y2="4.04"/><line class="cls-1" x1="9.63" y1="4.04" x2="9.63" y2="6.73"/><line class="cls-1" x1="6.96" y1="4.04" x2="6.96" y2="6.73"/><line class="cls-1" x1="4.42" y1="4.04" x2="4.42" y2="6.73"/><line class="cls-1" x1="1.75" y1="4.04" x2="1.75" y2="6.73"/><line class="cls-1" x1="31.11" y1="4.04" x2="31.11" y2="6.73"/><line class="cls-1" x1="28.44" y1="4.04" x2="28.44" y2="6.73"/><line class="cls-1" x1="25.9" y1="4.04" x2="25.9" y2="6.73"/><line class="cls-1" x1="23.23" y1="4.04" x2="23.23" y2="6.73"/></svg>