<svg id="Layer_1" data-name="Layer 1" xmlns="http://www.w3.org/2000/svg" viewBox="0 0 33 11"><defs><style>.cls-1{fill:none;stroke:#666;stroke-miterlimit:10;stroke-width:0.25px;}.cls-2{fill:#666;}</style></defs><title>Artboard 4</title><circle class="cls-1" cx="16.41" cy="5.47" r="3.74"/><circle class="cls-1" cx="16.4" cy="5.49" r="2.76"/><path class="cls-1" d="M11.35,4l-8.91,0A1.53,1.53,0,0,0,1,5.5H1A1.54,1.54,0,0,0,2.44,7.07h8.94"/><path class="cls-1" d="M21.35,7.07H29.9A1.55,1.55,0,0,0,31.4,5.5h0a1.54,1.54,0,0,0-1.5-1.57H21.48"/><rect class="cls-1" x="14.76" y="3.82" width="3.31" height="3.31" transform="translate(0.94 13.21) rotate(-45)"/><rect class="cls-2" x="16.33" y="1.74" width="0.17" height="0.9"/><rect class="cls-2" x="15.31" y="1.9" width="0.17" height="0.9" transform="translate(0.03 4.87) rotate(-18)"/><rect class="cls-2" x="14.4" y="2.37" width="0.17" height="0.9" transform="translate(1.11 9.05) rotate(-36)"/><rect class="cls-2" x="13.67" y="3.09" width="0.17" height="0.9" transform="translate(2.8 12.59) rotate(-54)"/><rect class="cls-2" x="13.2" y="4.01" width="0.17" height="0.9" transform="translate(4.94 15.72) rotate(-72)"/><rect class="cls-2" x="13.04" y="5.02" width="0.17" height="0.9" transform="translate(7.65 18.6) rotate(-90)"/><rect class="cls-2" x="13.2" y="6.04" width="0.17" height="0.9" transform="translate(11.22 21.13) rotate(-108)"/><rect class="cls-2" x="13.67" y="6.96" width="0.17" height="0.9" transform="translate(15.85 22.88) rotate(-126)"/><rect class="cls-2" x="14.4" y="7.68" width="0.17" height="0.9" transform="translate(21.41 23.22) rotate(-144)"/><rect class="cls-2" x="15.31" y="8.15" width="0.17" height="0.9" transform="translate(27.38 21.53) rotate(-162)"/><rect class="cls-2" x="16.33" y="8.31" width="0.17" height="0.9" transform="translate(32.82 17.52) rotate(-180)"/><rect class="cls-2" x="17.34" y="8.15" width="0.17" height="0.9" transform="translate(36.66 11.39) rotate(162)"/><rect class="cls-2" x="18.26" y="7.68" width="0.17" height="0.9" transform="translate(37.96 3.93) rotate(144)"/><rect class="cls-2" x="18.99" y="6.96" width="0.17" height="0.9" transform="translate(36.27 -3.67) rotate(126)"/><rect class="cls-2" x="19.45" y="6.04" width="0.17" height="0.9" transform="translate(31.75 -10.09) rotate(108)"/><rect class="cls-2" x="19.61" y="5.02" width="0.17" height="0.9" transform="translate(25.17 -14.22) rotate(90)"/><rect class="cls-2" x="19.45" y="4.01" width="0.17" height="0.9" transform="translate(17.74 -15.5) rotate(72)"/><rect class="cls-2" x="18.99" y="3.09" width="0.17" height="0.9" transform="translate(10.73 -13.97) rotate(54)"/><rect class="cls-2" x="18.26" y="2.37" width="0.17" height="0.9" transform="translate(5.16 -10.24) rotate(36)"/><rect class="cls-2" x="17.34" y="1.9" width="0.17" height="0.9" transform="translate(1.58 -5.27) rotate(18)"/><circle class="cls-1" cx="16.37" cy="5.46" r="5.24"/><circle class="cls-1" cx="16.35" cy="5.48" r="3.88"/><rect class="cls-2" x="16.25" y="0.22" width="0.23" height="1.26"/><rect class="cls-2" x="14.83" y="0.45" width="0.23" height="1.26" transform="translate(0.4 4.67) rotate(-18)"/><rect class="cls-2" x="13.54" y="1.1" width="0.23" height="1.26" transform="translate(1.59 8.36) rotate(-36)"/><rect class="cls-2" x="12.52" y="2.12" width="0.23" height="1.26" transform="translate(2.98 11.36) rotate(-54)"/><rect class="cls-2" x="11.87" y="3.41" width="0.23" height="1.26" transform="translate(4.44 14.19) rotate(-72)"/><rect class="cls-2" x="11.65" y="4.83" width="0.23" height="1.26" transform="translate(6.3 17.22) rotate(-90)"/><rect class="cls-2" x="11.87" y="6.25" width="0.23" height="1.26" transform="translate(9.14 20.41) rotate(-108)"/><rect class="cls-2" x="12.52" y="7.54" width="0.23" height="1.26" transform="translate(13.46 23.2) rotate(-126)"/><rect class="cls-2" x="13.54" y="8.56" width="0.23" height="1.26" transform="translate(19.31 24.65) rotate(-144)"/><rect class="cls-2" x="14.83" y="9.21" width="0.23" height="1.26" transform="matrix(-0.95, -0.31, 0.31, -0.95, 26.12, 23.82)"/><rect class="cls-2" x="16.25" y="9.44" width="0.23" height="1.26" transform="translate(32.74 20.13) rotate(-180)"/><rect class="cls-2" x="17.68" y="9.21" width="0.23" height="1.26" transform="translate(37.75 13.7) rotate(162)"/><rect class="cls-2" x="18.96" y="8.56" width="0.23" height="1.26" transform="translate(39.91 5.41) rotate(144)"/><rect class="cls-2" x="19.98" y="7.54" width="0.23" height="1.26" transform="translate(38.51 -3.29) rotate(126)"/><rect class="cls-2" x="20.63" y="6.25" width="0.23" height="1.26" transform="translate(33.71 -10.72) rotate(108)"/><rect class="cls-2" x="20.86" y="4.83" width="0.23" height="1.26" transform="translate(26.43 -15.51) rotate(90)"/><rect class="cls-2" x="20.63" y="3.41" width="0.23" height="1.26" transform="matrix(0.31, 0.95, -0.95, 0.31, 18.18, -16.94)"/><rect class="cls-2" x="19.98" y="2.12" width="0.23" height="1.26" transform="translate(10.51 -15.12) rotate(54)"/><rect class="cls-2" x="18.96" y="1.1" width="0.23" height="1.26" transform="translate(4.66 -10.88) rotate(36)"/><rect class="cls-2" x="17.68" y="0.45" width="0.23" height="1.26" transform="translate(1.2 -5.45) rotate(18)"/><circle class="cls-1" cx="23.07" cy="5.51" r="1.13"/><circle class="cls-1" cx="25.63" cy="5.51" r="1.13"/><circle class="cls-1" cx="28.21" cy="5.51" r="1.13"/><path class="cls-1" d="M31.4,5.5c0-.63-.24-1.12-.61-1.12a1.13,1.13,0,1,0,0,2.26C31.17,6.64,31.4,6.12,31.4,5.5Z"/><circle class="cls-1" cx="9.31" cy="5.51" r="1.13"/><circle class="cls-1" cx="6.75" cy="5.51" r="1.13"/><circle class="cls-1" cx="4.17" cy="5.51" r="1.13"/><path class="cls-1" d="M1,5.52c0,.62.24,1.12.6,1.12a1.13,1.13,0,1,0,0-2.26C1.21,4.38,1,4.9,1,5.52Z"/></svg>