<svg id="Layer_1" data-name="Layer 1" xmlns="http://www.w3.org/2000/svg" viewBox="0 0 33 11"><defs><style>.cls-1{fill:none;stroke:#666;stroke-miterlimit:10;stroke-width:0.25px;}.cls-2{fill:#666;}</style></defs><title>Artboard 1</title><circle class="cls-1" cx="16.65" cy="5.48" r="5.22"/><circle class="cls-1" cx="16.63" cy="5.5" r="3.86"/><path class="cls-1" d="M11.67,3.81H1.72A1.54,1.54,0,0,0,.23,5.38h0A1.54,1.54,0,0,0,1.72,7h10"/><path class="cls-1" d="M21.66,7h9.73a1.54,1.54,0,0,0,1.49-1.57h0a1.54,1.54,0,0,0-1.49-1.57H21.6"/><rect class="cls-1" x="14.33" y="3.17" width="4.63" height="4.63" transform="translate(1 13.38) rotate(-45)"/><rect class="cls-2" x="16.53" y="0.26" width="0.23" height="1.26"/><rect class="cls-2" x="15.11" y="0.49" width="0.23" height="1.26" transform="translate(0.4 4.76) rotate(-18)"/><rect class="cls-2" x="13.83" y="1.14" width="0.23" height="1.26" transform="translate(1.62 8.54) rotate(-36)"/><rect class="cls-2" x="12.82" y="2.16" width="0.23" height="1.26" transform="translate(3.08 11.61) rotate(-54)"/><rect class="cls-2" x="12.17" y="3.44" width="0.23" height="1.26" transform="translate(4.62 14.49) rotate(-72)"/><rect class="cls-2" x="11.94" y="4.86" width="0.23" height="1.26" transform="translate(6.57 17.54) rotate(-90)"/><rect class="cls-2" x="12.17" y="6.27" width="0.23" height="1.26" transform="translate(9.51 20.72) rotate(-108)"/><rect class="cls-2" x="12.82" y="7.55" width="0.23" height="1.26" transform="translate(13.91 23.46) rotate(-126)"/><rect class="cls-2" x="13.83" y="8.57" width="0.23" height="1.26" transform="translate(19.83 24.84) rotate(-144)"/><rect class="cls-2" x="15.11" y="9.22" width="0.23" height="1.26" transform="translate(26.67 23.93) rotate(-162)"/><rect class="cls-2" x="16.53" y="9.45" width="0.23" height="1.26" transform="translate(33.3 20.15) rotate(-180)"/><rect class="cls-2" x="17.95" y="9.22" width="0.23" height="1.26" transform="translate(38.3 13.64) rotate(162)"/><rect class="cls-2" x="19.23" y="8.57" width="0.23" height="1.26" transform="translate(40.41 5.27) rotate(144)"/><rect class="cls-2" x="20.25" y="7.55" width="0.23" height="1.26" transform="translate(38.95 -3.48) rotate(126)"/><rect class="cls-2" x="20.9" y="6.27" width="0.23" height="1.26" transform="translate(34.08 -10.95) rotate(108)"/><rect class="cls-2" x="21.12" y="4.86" width="0.23" height="1.26" transform="translate(26.73 -15.76) rotate(90)"/><rect class="cls-2" x="20.9" y="3.44" width="0.23" height="1.26" transform="translate(18.39 -17.18) rotate(72)"/><rect class="cls-2" x="20.25" y="2.16" width="0.23" height="1.26" transform="translate(10.65 -15.33) rotate(54)"/><rect class="cls-2" x="19.23" y="1.14" width="0.23" height="1.26" transform="translate(4.73 -11.03) rotate(36)"/><rect class="cls-2" x="17.95" y="0.49" width="0.23" height="1.26" transform="translate(1.23 -5.53) rotate(18)"/><circle class="cls-1" cx="25.21" cy="5.34" r="1.24"/><path class="cls-1" d="M23.67,5.34a1.22,1.22,0,0,0-1.24-1.23c-.95,0-.56.57-.56,1.26s-.27,1.21.56,1.21A1.24,1.24,0,0,0,23.67,5.34Z"/><circle class="cls-1" cx="28.05" cy="5.34" r="1.24"/><circle class="cls-1" cx="30.84" cy="5.34" r="1.24"/><circle class="cls-1" cx="7.92" cy="5.38" r="1.24"/><path class="cls-1" d="M9.58,5.37a1.23,1.23,0,0,0,1.24,1.24c.93,0,.56-.58.56-1.27s.53-1.21-.56-1.21A1.24,1.24,0,0,0,9.58,5.37Z"/><circle class="cls-1" cx="5.08" cy="5.38" r="1.24"/><circle class="cls-1" cx="2.29" cy="5.38" r="1.24"/></svg>