<svg id="Layer_2" data-name="Layer 2" xmlns="http://www.w3.org/2000/svg" viewBox="0 0 33 11"><defs><style>.cls-1,.cls-2,.cls-3{fill:none;stroke:#666;stroke-miterlimit:10;}.cls-1{stroke-width:0.5px;}.cls-2{stroke-width:0.25px;}.cls-3{stroke-width:0.1px;}</style></defs><title>PaveArtboard 1</title><circle class="cls-1" cx="16.65" cy="5.48" r="5.22"/><rect class="cls-2" x="13.57" y="2.41" width="6.18" height="6.18" transform="translate(0.99 13.39) rotate(-45)"/><path class="cls-3" d="M11.43,7A1.6,1.6,0,0,1,9.77,5.48a1.51,1.51,0,0,1,1.45-1.57"/><circle class="cls-3" cx="8.32" cy="5.36" r="1.45"/><circle class="cls-3" cx="5.42" cy="5.36" r="1.45"/><circle class="cls-3" cx="2.52" cy="5.36" r="1.45"/><path class="cls-2" d="M11.67,3.81H1.72A1.54,1.54,0,0,0,.23,5.38h0A1.54,1.54,0,0,0,1.72,7h10"/><path class="cls-3" d="M21.68,3.81a1.6,1.6,0,0,1,1.65,1.47,1.51,1.51,0,0,1-1.45,1.58"/><circle class="cls-3" cx="24.79" cy="5.41" r="1.45"/><circle class="cls-3" cx="27.69" cy="5.41" r="1.45"/><circle class="cls-3" cx="30.59" cy="5.41" r="1.45"/><path class="cls-2" d="M21.44,7h10a1.54,1.54,0,0,0,1.49-1.57h0a1.54,1.54,0,0,0-1.49-1.57H21.44"/></svg>