<svg id="Layer_1" data-name="Layer 1" xmlns="http://www.w3.org/2000/svg" xmlns:xlink="http://www.w3.org/1999/xlink" viewBox="0 0 33 11"><defs><style>.cls-1{fill:none;}.cls-1,.cls-2,.cls-3{stroke:#666;stroke-miterlimit:10;stroke-width:0.25px;}.cls-2{fill:url(#linear-gradient);}.cls-3{fill:url(#linear-gradient-2);}</style><linearGradient id="linear-gradient" x1="0.18" y1="5.38" x2="11.62" y2="5.38" gradientUnits="userSpaceOnUse"><stop offset="0" stop-color="#999"/><stop offset="1" stop-color="#ccc"/></linearGradient><linearGradient id="linear-gradient-2" x1="21.54" y1="5.38" x2="32.82" y2="5.38" gradientUnits="userSpaceOnUse"><stop offset="0" stop-color="#ccc"/><stop offset="1" stop-color="#999"/></linearGradient></defs><title>Artboard 2</title><circle class="cls-1" cx="16.59" cy="5.48" r="5.22"/><path class="cls-2" d="M11.62,7H1.67A1.54,1.54,0,0,1,.18,5.38h0A1.54,1.54,0,0,1,1.67,3.81h10A5.21,5.21,0,0,0,11.62,7Z"/><path class="cls-3" d="M21.61,7h9.72a1.54,1.54,0,0,0,1.49-1.57h0a1.54,1.54,0,0,0-1.49-1.57H21.54A4.77,4.77,0,0,1,21.61,7Z"/><rect class="cls-1" x="14.28" y="3.17" width="4.63" height="4.63" transform="translate(0.98 13.34) rotate(-45)"/></svg>